<svg version="1.1" xmlns="http://www.w3.org/2000/svg" xmlns:xlink="http://www.w3.org/1999/xlink" width="1403" height="556"><defs/><g><g transform="translate(-22,-30) scale(1,1)"><rect fill="#C0C0C0" stroke="none" x="247" y="47" width="178.6435546875" height="39" opacity="0.2"/></g><g transform="translate(-22,-30) scale(1,1)"><rect fill="#ffffff" stroke="none" x="240" y="40" width="178.6435546875" height="39"/></g><g transform="translate(-22,-30) scale(1,1)"><path fill="none" stroke="#000000" d="M 240 40 L 418.6435546875 40 L 418.6435546875 79 L 240 79 L 240 40 Z Z" stroke-miterlimit="10"/></g><g transform="translate(-22,-30) scale(1,1)"><g><path fill="none" stroke="none"/><text fill="#000000" stroke="none" font-family="Arial" font-size="13px" font-style="normal" font-weight="bold" text-decoration="none" x="254.530517578125" y="59.5">XmlBeanDefinitionReader</text></g></g><g transform="translate(-22,-30) scale(1,1)"><path fill="none" stroke="#000000" d="M 330.5 80 L 330.5 400" stroke-miterlimit="10" stroke-dasharray="3"/></g><g transform="translate(-22,-30) scale(1,1)"><rect fill="#C0C0C0" stroke="none" x="39" y="47" width="214.74267578125" height="39" opacity="0.2"/></g><g transform="translate(-22,-30) scale(1,1)"><rect fill="#ffffff" stroke="none" x="32" y="40" width="214.74267578125" height="39"/></g><g transform="translate(-22,-30) scale(1,1)"><path fill="none" stroke="#000000" d="M 32 40 L 246.74267578125 40 L 246.74267578125 79 L 32 79 L 32 40 Z Z" stroke-miterlimit="10"/></g><g transform="translate(-22,-30) scale(1,1)"><g><path fill="none" stroke="none"/><text fill="#000000" stroke="none" font-family="Arial" font-size="13px" font-style="normal" font-weight="bold" text-decoration="none" x="50.135986328125" y="59.5">AbstractXmlApplicationContext</text></g></g><g transform="translate(-22,-30) scale(1,1)"><path fill="none" stroke="#000000" d="M 140.5 80 L 140.5 239" stroke-miterlimit="10" stroke-dasharray="3"/></g><g transform="translate(-22,-30) scale(1,1)"><rect fill="#C0C0C0" stroke="none" x="423" y="47" width="169.9599609375" height="39" opacity="0.2"/></g><g transform="translate(-22,-30) scale(1,1)"><rect fill="#ffffff" stroke="none" x="416" y="40" width="169.9599609375" height="39"/></g><g transform="translate(-22,-30) scale(1,1)"><path fill="none" stroke="#000000" d="M 416 40 L 585.9599609375 40 L 585.9599609375 79 L 416 79 L 416 40 Z Z" stroke-miterlimit="10"/></g><g transform="translate(-22,-30) scale(1,1)"><g><path fill="none" stroke="none"/><text fill="#000000" stroke="none" font-family="Arial" font-size="13px" font-style="normal" font-weight="bold" text-decoration="none" x="430.52099609375" y="59.5">DefaultDocumentLoader</text></g></g><g transform="translate(-22,-30) scale(1,1)"><path fill="none" stroke="#000000" d="M 501.5 80 L 501.5 400" stroke-miterlimit="10" stroke-dasharray="3"/></g><g transform="translate(-22,-30) scale(1,1)"><rect fill="#C0C0C0" stroke="none" x="591" y="47" width="262.419921875" height="39" opacity="0.2"/></g><g transform="translate(-22,-30) scale(1,1)"><rect fill="#ffffff" stroke="none" x="584" y="40" width="262.419921875" height="39"/></g><g transform="translate(-22,-30) scale(1,1)"><path fill="none" stroke="#000000" d="M 584 40 L 846.419921875 40 L 846.419921875 79 L 584 79 L 584 40 Z Z" stroke-miterlimit="10"/></g><g transform="translate(-22,-30) scale(1,1)"><g><path fill="none" stroke="none"/><text fill="#000000" stroke="none" font-family="Arial" font-size="13px" font-style="normal" font-weight="bold" text-decoration="none" x="601.393310546875" y="59.5">DefaultBeanDefinitionDocumentReader</text></g></g><g transform="translate(-22,-30) scale(1,1)"><path fill="none" stroke="#000000" d="M 716.5 80 L 716.5 536" stroke-miterlimit="10" stroke-dasharray="3"/></g><g transform="translate(-22,-30) scale(1,1)"><rect fill="#C0C0C0" stroke="none" x="847" y="47" width="205.392578125" height="39" opacity="0.2"/></g><g transform="translate(-22,-30) scale(1,1)"><rect fill="#ffffff" stroke="none" x="840" y="40" width="205.392578125" height="39"/></g><g transform="translate(-22,-30) scale(1,1)"><path fill="none" stroke="#000000" d="M 840 40 L 1045.392578125 40 L 1045.392578125 79 L 840 79 L 840 40 Z Z" stroke-miterlimit="10"/></g><g transform="translate(-22,-30) scale(1,1)"><g><path fill="none" stroke="none"/><text fill="#000000" stroke="none" font-family="Arial" font-size="13px" font-style="normal" font-weight="bold" text-decoration="none" x="855.254150390625" y="59.5">BeanDefinitionParserDelegate</text></g></g><g transform="translate(-22,-30) scale(1,1)"><path fill="none" stroke="#000000" d="M 943.5 80 L 943.5 528" stroke-miterlimit="10" stroke-dasharray="3"/></g><g transform="translate(-22,-30) scale(1,1)"><rect fill="#C0C0C0" stroke="none" x="1047" y="47" width="182.97265625" height="39" opacity="0.2"/></g><g transform="translate(-22,-30) scale(1,1)"><rect fill="#ffffff" stroke="none" x="1040" y="40" width="182.97265625" height="39"/></g><g transform="translate(-22,-30) scale(1,1)"><path fill="none" stroke="#000000" d="M 1040 40 L 1222.97265625 40 L 1222.97265625 79 L 1040 79 L 1040 40 Z Z" stroke-miterlimit="10"/></g><g transform="translate(-22,-30) scale(1,1)"><g><path fill="none" stroke="none"/><text fill="#000000" stroke="none" font-family="Arial" font-size="13px" font-style="normal" font-weight="bold" text-decoration="none" x="1055.2509765625" y="59.5">BeanDefinitionReaderUtils</text></g></g><g transform="translate(-22,-30) scale(1,1)"><path fill="none" stroke="#000000" d="M 1132.5 80 L 1132.5 576" stroke-miterlimit="10" stroke-dasharray="3"/></g><g transform="translate(-22,-30) scale(1,1)"><rect fill="#C0C0C0" stroke="none" x="1231.0673828125" y="47" width="190.9326171875" height="39" opacity="0.2"/></g><g transform="translate(-22,-30) scale(1,1)"><rect fill="#ffffff" stroke="none" x="1224.0673828125" y="40" width="190.9326171875" height="39"/></g><g transform="translate(-22,-30) scale(1,1)"><path fill="none" stroke="#000000" d="M 1224.0673828125 40 L 1415 40 L 1415 79 L 1224.0673828125 79 L 1224.0673828125 40 Z Z" stroke-miterlimit="10"/></g><g transform="translate(-22,-30) scale(1,1)"><g><path fill="none" stroke="none"/><text fill="#000000" stroke="none" font-family="Arial" font-size="13px" font-style="normal" font-weight="bold" text-decoration="none" x="1239.683349609375" y="59.5">DefaultListableBeanFactory</text></g></g><g transform="translate(-22,-30) scale(1,1)"><path fill="none" stroke="#000000" d="M 1320.5 80 L 1320.5 576" stroke-miterlimit="10" stroke-dasharray="3"/></g><g transform="translate(-22,-30) scale(1,1)"><path fill="none" stroke="#000000" d="M 140 106 L 323 106" stroke-miterlimit="10"/></g><g transform="translate(-22,-30) scale(1,1)"><path fill="#000000" stroke="none" d="M 312.83732514237585 110.20951775601598 L 323 106 L 312.83732514237585 101.79048224398402"/></g><g transform="translate(-22,-30) scale(1,1)"><path fill="none" stroke="#000000" d="M 312.83732514237585 110.20951775601598 L 323 106 L 312.83732514237585 101.79048224398402 L 312.83732514237585 110.20951775601598" stroke-miterlimit="10"/></g><g transform="translate(-22,-30) scale(1,1)"><g><path fill="none" stroke="none"/><text fill="#000000" stroke="none" font-family="Arial" font-size="13px" font-style="normal" font-weight="normal" text-decoration="none" x="164.5" y="102.5">1 : loadBeanDefinitions</text></g></g><g transform="translate(-22,-30) scale(1,1)"><rect fill="#ffffff" stroke="none" x="323" y="106" width="13" height="28"/></g><g transform="translate(-22,-30) scale(1,1)"><path fill="none" stroke="#000000" d="M 323 106 L 336 106 L 336 134 L 323 134 L 323 106 Z Z" stroke-miterlimit="10"/></g><g transform="translate(-22,-30) scale(1,1)"><path fill="none" stroke="#000000" d="M 336 128 L 366 128 L 366 148 L 336 148" stroke-miterlimit="10"/></g><g transform="translate(-22,-30) scale(1,1)"><path fill="#000000" stroke="none" d="M 346.16267485762415 143.790482243984 L 336 148 L 346.16267485762415 152.209517756016"/></g><g transform="translate(-22,-30) scale(1,1)"><path fill="none" stroke="#000000" d="M 346.16267485762415 143.790482243984 L 336 148 L 346.16267485762415 152.209517756016 L 346.16267485762415 143.790482243984" stroke-miterlimit="10"/></g><g transform="translate(-22,-30) scale(1,1)"><g><path fill="none" stroke="none"/><text fill="#000000" stroke="none" font-family="Arial" font-size="13px" font-style="normal" font-weight="normal" text-decoration="none" x="341.5" y="164.5">2 : doLoadBeanDefinitions</text></g></g><g transform="translate(-22,-30) scale(1,1)"><rect fill="#ffffff" stroke="none" x="323" y="148" width="13" height="28"/></g><g transform="translate(-22,-30) scale(1,1)"><path fill="none" stroke="#000000" d="M 323 148 L 336 148 L 336 176 L 323 176 L 323 148 Z Z" stroke-miterlimit="10"/></g><g transform="translate(-22,-30) scale(1,1)"><path fill="none" stroke="#000000" d="M 330 192 L 494 192" stroke-miterlimit="10"/></g><g transform="translate(-22,-30) scale(1,1)"><path fill="#000000" stroke="none" d="M 483.83732514237585 196.209517756016 L 494 192 L 483.83732514237585 187.790482243984"/></g><g transform="translate(-22,-30) scale(1,1)"><path fill="none" stroke="#000000" d="M 483.83732514237585 196.209517756016 L 494 192 L 483.83732514237585 187.790482243984 L 483.83732514237585 196.209517756016" stroke-miterlimit="10"/></g><g transform="translate(-22,-30) scale(1,1)"><g><path fill="none" stroke="none"/><text fill="#000000" stroke="none" font-family="Arial" font-size="13px" font-style="normal" font-weight="normal" text-decoration="none" x="351.5" y="188.5">3 : doLoadDocument</text></g></g><g transform="translate(-22,-30) scale(1,1)"><rect fill="#ffffff" stroke="none" x="494" y="192" width="13" height="28"/></g><g transform="translate(-22,-30) scale(1,1)"><path fill="none" stroke="#000000" d="M 494 192 L 507 192 L 507 220 L 494 220 L 494 192 Z Z" stroke-miterlimit="10"/></g><g transform="translate(-22,-30) scale(1,1)"><path fill="none" stroke="#000000" d="M 330 240 L 709 240" stroke-miterlimit="10"/></g><g transform="translate(-22,-30) scale(1,1)"><path fill="#000000" stroke="none" d="M 698.8373251423759 244.209517756016 L 709 240 L 698.8373251423758 235.790482243984"/></g><g transform="translate(-22,-30) scale(1,1)"><path fill="none" stroke="#000000" d="M 698.8373251423759 244.209517756016 L 709 240 L 698.8373251423758 235.790482243984 L 698.8373251423759 244.209517756016" stroke-miterlimit="10"/></g><g transform="translate(-22,-30) scale(1,1)"><g><path fill="none" stroke="none"/><text fill="#000000" stroke="none" font-family="Arial" font-size="13px" font-style="normal" font-weight="normal" text-decoration="none" x="442.5" y="236.5">4 : registerBeanDefinitions</text></g></g><g transform="translate(-22,-30) scale(1,1)"><rect fill="#ffffff" stroke="none" x="709" y="240" width="13" height="28"/></g><g transform="translate(-22,-30) scale(1,1)"><path fill="none" stroke="#000000" d="M 709 240 L 722 240 L 722 268 L 709 268 L 709 240 Z Z" stroke-miterlimit="10"/></g><g transform="translate(-22,-30) scale(1,1)"><path fill="none" stroke="#000000" d="M 716 272 L 746 272 L 746 292 L 722 292" stroke-miterlimit="10"/></g><g transform="translate(-22,-30) scale(1,1)"><path fill="#000000" stroke="none" d="M 732.1626748576241 287.790482243984 L 722 292 L 732.1626748576241 296.209517756016"/></g><g transform="translate(-22,-30) scale(1,1)"><path fill="none" stroke="#000000" d="M 732.1626748576241 287.790482243984 L 722 292 L 732.1626748576241 296.209517756016 L 732.1626748576241 287.790482243984" stroke-miterlimit="10"/></g><g transform="translate(-22,-30) scale(1,1)"><g><path fill="none" stroke="none"/><text fill="#000000" stroke="none" font-family="Arial" font-size="13px" font-style="normal" font-weight="normal" text-decoration="none" x="751.5" y="287.5">5 : doRegisterBeanDefinitions</text></g></g><g transform="translate(-22,-30) scale(1,1)"><rect fill="#ffffff" stroke="none" x="709" y="292" width="13" height="28"/></g><g transform="translate(-22,-30) scale(1,1)"><path fill="none" stroke="#000000" d="M 709 292 L 722 292 L 722 320 L 709 320 L 709 292 Z Z" stroke-miterlimit="10"/></g><g transform="translate(-22,-30) scale(1,1)"><path fill="none" stroke="#000000" d="M 716 328 L 746 328 L 746 348 L 722 348" stroke-miterlimit="10"/></g><g transform="translate(-22,-30) scale(1,1)"><path fill="#000000" stroke="none" d="M 732.1626748576241 343.790482243984 L 722 348 L 732.1626748576241 352.209517756016"/></g><g transform="translate(-22,-30) scale(1,1)"><path fill="none" stroke="#000000" d="M 732.1626748576241 343.790482243984 L 722 348 L 732.1626748576241 352.209517756016 L 732.1626748576241 343.790482243984" stroke-miterlimit="10"/></g><g transform="translate(-22,-30) scale(1,1)"><g><path fill="none" stroke="none"/><text fill="#000000" stroke="none" font-family="Arial" font-size="13px" font-style="normal" font-weight="normal" text-decoration="none" x="751.5" y="343.5">6 : parseBeanDefinitions</text></g></g><g transform="translate(-22,-30) scale(1,1)"><rect fill="#ffffff" stroke="none" x="709" y="348" width="13" height="28"/></g><g transform="translate(-22,-30) scale(1,1)"><path fill="none" stroke="#000000" d="M 709 348 L 722 348 L 722 376 L 709 376 L 709 348 Z Z" stroke-miterlimit="10"/></g><g transform="translate(-22,-30) scale(1,1)"><path fill="none" stroke="#000000" d="M 716 392 L 936 392" stroke-miterlimit="10"/></g><g transform="translate(-22,-30) scale(1,1)"><path fill="#000000" stroke="none" d="M 925.8373251423759 396.209517756016 L 936 392 L 925.8373251423758 387.790482243984"/></g><g transform="translate(-22,-30) scale(1,1)"><path fill="none" stroke="#000000" d="M 925.8373251423759 396.209517756016 L 936 392 L 925.8373251423758 387.790482243984 L 925.8373251423759 396.209517756016" stroke-miterlimit="10"/></g><g transform="translate(-22,-30) scale(1,1)"><g><path fill="none" stroke="none"/><text fill="#000000" stroke="none" font-family="Arial" font-size="13px" font-style="normal" font-weight="normal" text-decoration="none" x="734.5" y="388.5">7 : parseBeanDefinitionElement</text></g></g><g transform="translate(-22,-30) scale(1,1)"><rect fill="#ffffff" stroke="none" x="936" y="392" width="13" height="28"/></g><g transform="translate(-22,-30) scale(1,1)"><path fill="none" stroke="#000000" d="M 936 392 L 949 392 L 949 420 L 936 420 L 936 392 Z Z" stroke-miterlimit="10"/></g><g transform="translate(-22,-30) scale(1,1)"><path fill="none" stroke="#000000" d="M 949 416 L 979 416 L 979 436 L 949 436" stroke-miterlimit="10"/></g><g transform="translate(-22,-30) scale(1,1)"><path fill="#000000" stroke="none" d="M 959.1626748576241 431.790482243984 L 949 436 L 959.1626748576241 440.209517756016"/></g><g transform="translate(-22,-30) scale(1,1)"><path fill="none" stroke="#000000" d="M 959.1626748576241 431.790482243984 L 949 436 L 959.1626748576241 440.209517756016 L 959.1626748576241 431.790482243984" stroke-miterlimit="10"/></g><g transform="translate(-22,-30) scale(1,1)"><g><path fill="none" stroke="none"/><text fill="#000000" stroke="none" font-family="Arial" font-size="13px" font-style="normal" font-weight="normal" text-decoration="none" x="718.5" y="451.5">8 : decorateBeanDefinitionIfRequired</text></g></g><g transform="translate(-22,-30) scale(1,1)"><rect fill="#ffffff" stroke="none" x="936" y="436" width="13" height="28"/></g><g transform="translate(-22,-30) scale(1,1)"><path fill="none" stroke="#000000" d="M 936 436 L 949 436 L 949 464 L 936 464 L 936 436 Z Z" stroke-miterlimit="10"/></g><g transform="translate(-22,-30) scale(1,1)"><path fill="none" stroke="#000000" d="M 943 472 L 1125 472" stroke-miterlimit="10"/></g><g transform="translate(-22,-30) scale(1,1)"><path fill="#000000" stroke="none" d="M 1114.837325142376 476.209517756016 L 1125 472 L 1114.837325142376 467.790482243984"/></g><g transform="translate(-22,-30) scale(1,1)"><path fill="none" stroke="#000000" d="M 1114.837325142376 476.209517756016 L 1125 472 L 1114.837325142376 467.790482243984 L 1114.837325142376 476.209517756016" stroke-miterlimit="10"/></g><g transform="translate(-22,-30) scale(1,1)"><g><path fill="none" stroke="none"/><text fill="#000000" stroke="none" font-family="Arial" font-size="13px" font-style="normal" font-weight="normal" text-decoration="none" x="961.5" y="468.5">9 : registerBeanDefinition</text></g></g><g transform="translate(-22,-30) scale(1,1)"><rect fill="#ffffff" stroke="none" x="1125" y="472" width="13" height="28"/></g><g transform="translate(-22,-30) scale(1,1)"><path fill="none" stroke="#000000" d="M 1125 472 L 1138 472 L 1138 500 L 1125 500 L 1125 472 Z Z" stroke-miterlimit="10"/></g><g transform="translate(-22,-30) scale(1,1)"><path fill="none" stroke="#000000" d="M 1132 512 L 1313 512" stroke-miterlimit="10"/></g><g transform="translate(-22,-30) scale(1,1)"><path fill="#000000" stroke="none" d="M 1302.837325142376 516.209517756016 L 1313 512 L 1302.837325142376 507.790482243984"/></g><g transform="translate(-22,-30) scale(1,1)"><path fill="none" stroke="#000000" d="M 1302.837325142376 516.209517756016 L 1313 512 L 1302.837325142376 507.790482243984 L 1302.837325142376 516.209517756016" stroke-miterlimit="10"/></g><g transform="translate(-22,-30) scale(1,1)"><g><path fill="none" stroke="none"/><text fill="#000000" stroke="none" font-family="Arial" font-size="13px" font-style="normal" font-weight="normal" text-decoration="none" x="1145.5" y="508.5">10 : registerBeanDefinition</text></g></g><g transform="translate(-22,-30) scale(1,1)"><rect fill="#ffffff" stroke="none" x="1313" y="512" width="13" height="28"/></g><g transform="translate(-22,-30) scale(1,1)"><path fill="none" stroke="#000000" d="M 1313 512 L 1326 512 L 1326 540 L 1313 540 L 1313 512 Z Z" stroke-miterlimit="10"/></g></g></svg>