<svg version="1.1" xmlns="http://www.w3.org/2000/svg" xmlns:xlink="http://www.w3.org/1999/xlink" width="1306.41796875" height="452"><defs/><g><g transform="translate(10,-30) scale(1,1)"><rect fill="#C0C0C0" stroke="none" x="7" y="47" width="230.64990234375" height="39" opacity="0.2"/></g><g transform="translate(10,-30) scale(1,1)"><rect fill="#ffffff" stroke="none" x="0" y="40" width="230.64990234375" height="39"/></g><g transform="translate(10,-30) scale(1,1)"><path fill="none" stroke="#000000" d="M 0 40 L 230.64990234375 40 L 230.64990234375 79 L 0 79 L 0 40 Z Z" stroke-miterlimit="10"/></g><g transform="translate(10,-30) scale(1,1)"><g><path fill="none" stroke="none"/><text fill="#000000" stroke="none" font-family="Arial" font-size="13px" font-style="normal" font-weight="bold" text-decoration="none" x="17.786865234375" y="59.5">FileSystemXmlApplicationContext</text></g></g><g transform="translate(10,-30) scale(1,1)"><path fill="none" stroke="#000000" d="M 116.5 80 L 116.5 464" stroke-miterlimit="10" stroke-dasharray="3"/></g><g transform="translate(10,-30) scale(1,1)"><rect fill="#C0C0C0" stroke="none" x="231" y="47" width="214.74267578125" height="39" opacity="0.2"/></g><g transform="translate(10,-30) scale(1,1)"><rect fill="#ffffff" stroke="none" x="224" y="40" width="214.74267578125" height="39"/></g><g transform="translate(10,-30) scale(1,1)"><path fill="none" stroke="#000000" d="M 224 40 L 438.74267578125 40 L 438.74267578125 79 L 224 79 L 224 40 Z Z" stroke-miterlimit="10"/></g><g transform="translate(10,-30) scale(1,1)"><g><path fill="none" stroke="none"/><text fill="#000000" stroke="none" font-family="Arial" font-size="13px" font-style="normal" font-weight="bold" text-decoration="none" x="242.135986328125" y="59.5">AbstractXmlApplicationContext</text></g></g><g transform="translate(10,-30) scale(1,1)"><path fill="none" stroke="#000000" d="M 332.5 80 L 332.5 472" stroke-miterlimit="10" stroke-dasharray="3"/></g><g transform="translate(10,-30) scale(1,1)"><rect fill="#C0C0C0" stroke="none" x="439" y="47" width="306.47265625" height="39" opacity="0.2"/></g><g transform="translate(10,-30) scale(1,1)"><rect fill="#ffffff" stroke="none" x="432" y="40" width="306.47265625" height="39"/></g><g transform="translate(10,-30) scale(1,1)"><path fill="none" stroke="#000000" d="M 432 40 L 738.47265625 40 L 738.47265625 79 L 432 79 L 432 40 Z Z" stroke-miterlimit="10"/></g><g transform="translate(10,-30) scale(1,1)"><g><path fill="none" stroke="none"/><text fill="#000000" stroke="none" font-family="Arial" font-size="13px" font-style="normal" font-weight="bold" text-decoration="none" x="453.357421875" y="59.5">AbstractRefreshableConfigApplicationContext</text></g></g><g transform="translate(10,-30) scale(1,1)"><path fill="none" stroke="#000000" d="M 586.5 80 L 586.5 472" stroke-miterlimit="10" stroke-dasharray="3"/></g><g transform="translate(10,-30) scale(1,1)"><rect fill="#C0C0C0" stroke="none" x="743" y="47" width="265.32080078125" height="39" opacity="0.2"/></g><g transform="translate(10,-30) scale(1,1)"><rect fill="#ffffff" stroke="none" x="736" y="40" width="265.32080078125" height="39"/></g><g transform="translate(10,-30) scale(1,1)"><path fill="none" stroke="#000000" d="M 736 40 L 1001.32080078125 40 L 1001.32080078125 79 L 736 79 L 736 40 Z Z" stroke-miterlimit="10"/></g><g transform="translate(10,-30) scale(1,1)"><g><path fill="none" stroke="none"/><text fill="#000000" stroke="none" font-family="Arial" font-size="13px" font-style="normal" font-weight="bold" text-decoration="none" x="755.570556640625" y="59.5">AbstractRefreshableApplicationContext</text></g></g><g transform="translate(10,-30) scale(1,1)"><path fill="none" stroke="#000000" d="M 869.5 80 L 869.5 464" stroke-miterlimit="10" stroke-dasharray="3"/></g><g transform="translate(10,-30) scale(1,1)"><rect fill="#C0C0C0" stroke="none" x="1007" y="47" width="190.90087890625" height="39" opacity="0.2"/></g><g transform="translate(10,-30) scale(1,1)"><rect fill="#ffffff" stroke="none" x="1000" y="40" width="190.90087890625" height="39"/></g><g transform="translate(10,-30) scale(1,1)"><path fill="none" stroke="#000000" d="M 1000 40 L 1190.90087890625 40 L 1190.90087890625 79 L 1000 79 L 1000 40 Z Z" stroke-miterlimit="10"/></g><g transform="translate(10,-30) scale(1,1)"><g><path fill="none" stroke="none"/><text fill="#000000" stroke="none" font-family="Arial" font-size="13px" font-style="normal" font-weight="bold" text-decoration="none" x="1017.4091796875" y="59.5">AbstractApplicationContext</text></g></g><g transform="translate(10,-30) scale(1,1)"><path fill="none" stroke="#000000" d="M 1096.5 80 L 1096.5 448" stroke-miterlimit="10" stroke-dasharray="3"/></g><g transform="translate(10,-30) scale(1,1)"><path fill="none" stroke="#000000" d="M 116 124 L 1089 124" stroke-miterlimit="10"/></g><g transform="translate(10,-30) scale(1,1)"><path fill="#000000" stroke="none" d="M 1078.837325142376 128.209517756016 L 1089 124 L 1078.837325142376 119.79048224398402"/></g><g transform="translate(10,-30) scale(1,1)"><path fill="none" stroke="#000000" d="M 1078.837325142376 128.209517756016 L 1089 124 L 1078.837325142376 119.79048224398402 L 1078.837325142376 128.209517756016" stroke-miterlimit="10"/></g><g transform="translate(10,-30) scale(1,1)"><g><path fill="none" stroke="none"/><text fill="#000000" stroke="none" font-family="Arial" font-size="13px" font-style="normal" font-weight="normal" text-decoration="none" x="631.062255859375" y="116.5">1 : super(parent)</text></g></g><g transform="translate(10,-30) scale(1,1)"><rect fill="#ffffff" stroke="none" x="1089" y="124" width="13" height="28"/></g><g transform="translate(10,-30) scale(1,1)"><path fill="none" stroke="#000000" d="M 1089 124 L 1102 124 L 1102 152 L 1089 152 L 1089 124 Z Z" stroke-miterlimit="10"/></g><g transform="translate(10,-30) scale(1,1)"><path fill="none" stroke="#000000" d="M 1102 136 L 1132 136 L 1132 156 L 1102 156" stroke-miterlimit="10"/></g><g transform="translate(10,-30) scale(1,1)"><path fill="#000000" stroke="none" d="M 1112.162674857624 151.790482243984 L 1102 156 L 1112.162674857624 160.209517756016"/></g><g transform="translate(10,-30) scale(1,1)"><path fill="none" stroke="#000000" d="M 1112.162674857624 151.790482243984 L 1102 156 L 1112.162674857624 160.209517756016 L 1112.162674857624 151.790482243984" stroke-miterlimit="10"/></g><g transform="translate(10,-30) scale(1,1)"><g><path fill="none" stroke="none"/><text fill="#000000" stroke="none" font-family="Arial" font-size="13px" font-style="normal" font-weight="normal" text-decoration="none" x="1122.5" y="151.5">2 : setParent(parent)</text></g></g><g transform="translate(10,-30) scale(1,1)"><rect fill="#ffffff" stroke="none" x="1089" y="156" width="13" height="28"/></g><g transform="translate(10,-30) scale(1,1)"><path fill="none" stroke="#000000" d="M 1089 156 L 1102 156 L 1102 184 L 1089 184 L 1089 156 Z Z" stroke-miterlimit="10"/></g><g transform="translate(10,-30) scale(1,1)"><path fill="none" stroke="#000000" d="M 116 184 L 579 184" stroke-miterlimit="10"/></g><g transform="translate(10,-30) scale(1,1)"><path fill="#000000" stroke="none" d="M 568.8373251423759 188.209517756016 L 579 184 L 568.8373251423758 179.790482243984"/></g><g transform="translate(10,-30) scale(1,1)"><path fill="none" stroke="#000000" d="M 568.8373251423759 188.209517756016 L 579 184 L 568.8373251423758 179.790482243984 L 568.8373251423759 188.209517756016" stroke-miterlimit="10"/></g><g transform="translate(10,-30) scale(1,1)"><g><path fill="none" stroke="none"/><text fill="#000000" stroke="none" font-family="Arial" font-size="13px" font-style="normal" font-weight="normal" text-decoration="none" x="340.5" y="172.5">3 : setConfigurationLocations</text></g></g><g transform="translate(10,-30) scale(1,1)"><rect fill="#ffffff" stroke="none" x="579" y="184" width="13" height="28"/></g><g transform="translate(10,-30) scale(1,1)"><path fill="none" stroke="#000000" d="M 579 184 L 592 184 L 592 212 L 579 212 L 579 184 Z Z" stroke-miterlimit="10"/></g><g transform="translate(10,-30) scale(1,1)"><path fill="none" stroke="#000000" d="M 116 240 L 1089 240" stroke-miterlimit="10"/></g><g transform="translate(10,-30) scale(1,1)"><path fill="#000000" stroke="none" d="M 1078.837325142376 244.209517756016 L 1089 240 L 1078.837325142376 235.790482243984"/></g><g transform="translate(10,-30) scale(1,1)"><path fill="none" stroke="#000000" d="M 1078.837325142376 244.209517756016 L 1089 240 L 1078.837325142376 235.790482243984 L 1078.837325142376 244.209517756016" stroke-miterlimit="10"/></g><g transform="translate(10,-30) scale(1,1)"><g><path fill="none" stroke="none"/><text fill="#000000" stroke="none" font-family="Arial" font-size="13px" font-style="normal" font-weight="normal" text-decoration="none" x="572.259521484375" y="236.5">4 : refresh</text></g></g><g transform="translate(10,-30) scale(1,1)"><rect fill="#ffffff" stroke="none" x="1089" y="240" width="13" height="28"/></g><g transform="translate(10,-30) scale(1,1)"><path fill="none" stroke="#000000" d="M 1089 240 L 1102 240 L 1102 268 L 1089 268 L 1089 240 Z Z" stroke-miterlimit="10"/></g><g transform="translate(10,-30) scale(1,1)"><path fill="none" stroke="#000000" d="M 1102 248 L 1132 248 L 1132 268 L 1109 268" stroke-miterlimit="10"/></g><g transform="translate(10,-30) scale(1,1)"><path fill="#000000" stroke="none" d="M 1119.162674857624 263.790482243984 L 1109 268 L 1119.162674857624 272.209517756016"/></g><g transform="translate(10,-30) scale(1,1)"><path fill="none" stroke="#000000" d="M 1119.162674857624 263.790482243984 L 1109 268 L 1119.162674857624 272.209517756016 L 1119.162674857624 263.790482243984" stroke-miterlimit="10"/></g><g transform="translate(10,-30) scale(1,1)"><g><path fill="none" stroke="none"/><text fill="#000000" stroke="none" font-family="Arial" font-size="13px" font-style="normal" font-weight="normal" text-decoration="none" x="1134.5" y="263.5">5 : prepareRefresh</text></g></g><g transform="translate(10,-30) scale(1,1)"><rect fill="#ffffff" stroke="none" x="1096" y="268" width="13" height="28"/></g><g transform="translate(10,-30) scale(1,1)"><path fill="none" stroke="#000000" d="M 1096 268 L 1109 268 L 1109 296 L 1096 296 L 1096 268 Z Z" stroke-miterlimit="10"/></g><g transform="translate(10,-30) scale(1,1)"><path fill="none" stroke="#000000" d="M 1096 312 L 1126 312 L 1126 332 L 1102 332" stroke-miterlimit="10"/></g><g transform="translate(10,-30) scale(1,1)"><path fill="#000000" stroke="none" d="M 1112.162674857624 327.790482243984 L 1102 332 L 1112.162674857624 336.209517756016"/></g><g transform="translate(10,-30) scale(1,1)"><path fill="none" stroke="#000000" d="M 1112.162674857624 327.790482243984 L 1102 332 L 1112.162674857624 336.209517756016 L 1112.162674857624 327.790482243984" stroke-miterlimit="10"/></g><g transform="translate(10,-30) scale(1,1)"><g><path fill="none" stroke="none"/><text fill="#000000" stroke="none" font-family="Arial" font-size="13px" font-style="normal" font-weight="normal" text-decoration="none" x="1126.5" y="316.5">6 : obtainFreshBeanFactory</text></g></g><g transform="translate(10,-30) scale(1,1)"><rect fill="#ffffff" stroke="none" x="1089" y="332" width="13" height="28"/></g><g transform="translate(10,-30) scale(1,1)"><path fill="none" stroke="#000000" d="M 1089 332 L 1102 332 L 1102 360 L 1089 360 L 1089 332 Z Z" stroke-miterlimit="10"/></g><g transform="translate(10,-30) scale(1,1)"><path fill="none" stroke="#000000" d="M 1096 376 L 875 376" stroke-miterlimit="10"/></g><g transform="translate(10,-30) scale(1,1)"><path fill="#000000" stroke="none" d="M 885.1626748576241 371.790482243984 L 875 376 L 885.1626748576241 380.209517756016"/></g><g transform="translate(10,-30) scale(1,1)"><path fill="none" stroke="#000000" d="M 885.1626748576241 371.790482243984 L 875 376 L 885.1626748576241 380.209517756016 L 885.1626748576241 371.790482243984" stroke-miterlimit="10"/></g><g transform="translate(10,-30) scale(1,1)"><g><path fill="none" stroke="none"/><text fill="#000000" stroke="none" font-family="Arial" font-size="13px" font-style="normal" font-weight="normal" text-decoration="none" x="917.5" y="392.5">7 : refreshBeanFactory</text></g></g><g transform="translate(10,-30) scale(1,1)"><rect fill="#ffffff" stroke="none" x="862" y="376" width="13" height="28"/></g><g transform="translate(10,-30) scale(1,1)"><path fill="none" stroke="#000000" d="M 862 376 L 875 376 L 875 404 L 862 404 L 862 376 Z Z" stroke-miterlimit="10"/></g><g transform="translate(10,-30) scale(1,1)"><path fill="none" stroke="#000000" d="M 869 408 L 338 408" stroke-miterlimit="10"/></g><g transform="translate(10,-30) scale(1,1)"><path fill="#000000" stroke="none" d="M 348.16267485762415 403.790482243984 L 338 408 L 348.16267485762415 412.209517756016"/></g><g transform="translate(10,-30) scale(1,1)"><path fill="none" stroke="#000000" d="M 348.16267485762415 403.790482243984 L 338 408 L 348.16267485762415 412.209517756016 L 348.16267485762415 403.790482243984" stroke-miterlimit="10"/></g><g transform="translate(10,-30) scale(1,1)"><g><path fill="none" stroke="none"/><text fill="#000000" stroke="none" font-family="Arial" font-size="13px" font-style="normal" font-weight="normal" text-decoration="none" x="535.5" y="424.5">8 : loadBeanDefinitions</text></g></g><g transform="translate(10,-30) scale(1,1)"><rect fill="#ffffff" stroke="none" x="325" y="408" width="13" height="28"/></g><g transform="translate(10,-30) scale(1,1)"><path fill="none" stroke="#000000" d="M 325 408 L 338 408 L 338 436 L 325 436 L 325 408 Z Z" stroke-miterlimit="10"/></g></g></svg>